<?xml version="1.0" standalone="no"?>
<!DOCTYPE svg PUBLIC "-//W3C//DTD SVG 20010904//EN"
 "http://www.w3.org/TR/2001/REC-SVG-20010904/DTD/svg10.dtd">
<svg version="1.0" xmlns="http://www.w3.org/2000/svg"
 width="73.000000pt" height="73.000000pt" viewBox="0 0 73.000000 73.000000"
 preserveAspectRatio="xMidYMid meet">
<metadata>
Created by potrace 1.11, written by Peter Selinger 2001-2013
</metadata>
<g transform="translate(0.000000,73.000000) scale(0.100000,-0.100000)"
fill="#000000" stroke="none">
<path d="M453 503 c-18 -7 -16 -42 3 -50 8 -3 23 1 31 10 13 13 14 19 3 31
-13 17 -17 18 -37 9z"/>
<path d="M276 474 c-19 -18 -13 -34 14 -34 19 0 34 25 24 41 -8 13 -21 11 -38
-7z"/>
<path d="M355 393 c-13 -12 -15 -26 -11 -55 7 -41 3 -43 -53 -38 -15 1 -22 -3
-19 -12 3 -8 19 -12 44 -11 21 2 67 3 101 3 39 0 65 6 72 14 14 16 -8 29 -29
16 -12 -7 -50 -2 -50 7 0 2 7 11 15 19 23 24 18 53 -11 64 -34 13 -40 13 -59
-7z"/>
<path d="M210 310 c0 -20 -1 -20 -17 -4 -12 11 -18 13 -21 5 -6 -18 14 -36 43
-39 23 -2 26 1 23 25 -4 32 -28 44 -28 13z"/>
<path d="M134 285 c3 -9 6 -19 6 -21 0 -2 7 -4 16 -4 22 0 13 34 -10 38 -14 3
-17 0 -12 -13z"/>
<path d="M100 265 c0 -15 26 -32 36 -23 2 3 2 13 -2 22 -8 20 -34 21 -34 1z"/>
<path d="M178 238 c-16 -5 -28 -13 -28 -18 0 -5 -3 -15 -6 -24 -5 -13 1 -16
34 -16 27 0 42 5 46 16 16 42 -1 57 -46 42z"/>
</g>
</svg>
