<?xml version="1.0" encoding="UTF-8" standalone="no"?>
<!DOCTYPE svg PUBLIC "-//W3C//DTD SVG 1.1//EN"
 "http://www.w3.org/Graphics/SVG/1.1/DTD/svg11.dtd">
<!-- Generated by graphviz version 2.40.1 (20161225.0304)
 -->
<!-- Title: %3 Pages: 1 -->
<svg width="756pt" height="743pt"
 viewBox="0.00 0.00 756.32 742.80" xmlns="http://www.w3.org/2000/svg" xmlns:xlink="http://www.w3.org/1999/xlink">
<g id="graph0" class="graph" transform="scale(1 1) rotate(0) translate(4 738.8)">
<title>%3</title>
<polygon fill="#ffffff" stroke="transparent" points="-4,4 -4,-738.8 752.3248,-738.8 752.3248,4 -4,4"/>
<!-- 5348134528 -->
<g id="node1" class="node">
<title>5348134528</title>
<polygon fill="#caff70" stroke="#000000" points="711.4748,-22.6036 549.1748,-22.6036 549.1748,.2036 711.4748,.2036 711.4748,-22.6036"/>
<text text-anchor="middle" x="630.3248" y="-7.6" font-family="Times,serif" font-size="12.00" fill="#000000">MkldnnConvolutionBackward</text>
</g>
<!-- 5341028816 -->
<g id="node2" class="node">
<title>5341028816</title>
<polygon fill="#d3d3d3" stroke="#000000" points="566.274,-88.0036 384.3756,-88.0036 384.3756,-65.1964 566.274,-65.1964 566.274,-88.0036"/>
<text text-anchor="middle" x="475.3248" y="-73" font-family="Times,serif" font-size="12.00" fill="#000000">MaxPool2DWithIndicesBackward</text>
</g>
<!-- 5341028816&#45;&gt;5348134528 -->
<g id="edge1" class="edge">
<title>5341028816&#45;&gt;5348134528</title>
<path fill="none" stroke="#000000" d="M501.9702,-65.3573C527.4438,-54.6091 566.0413,-38.3235 594.2587,-26.4176"/>
<polygon fill="#000000" stroke="#000000" points="595.9153,-29.5174 603.7681,-22.4052 593.1941,-23.068 595.9153,-29.5174"/>
</g>
<!-- 5341029992 -->
<g id="node3" class="node">
<title>5341029992</title>
<polygon fill="#d3d3d3" stroke="#000000" points="535.12,-153.4036 415.5296,-153.4036 415.5296,-130.5964 535.12,-130.5964 535.12,-153.4036"/>
<text text-anchor="middle" x="475.3248" y="-138.4" font-family="Times,serif" font-size="12.00" fill="#000000">ThresholdBackward0</text>
</g>
<!-- 5341029992&#45;&gt;5341028816 -->
<g id="edge2" class="edge">
<title>5341029992&#45;&gt;5341028816</title>
<path fill="none" stroke="#000000" d="M475.3248,-130.6082C475.3248,-121.6054 475.3248,-108.7859 475.3248,-97.8957"/>
<polygon fill="#000000" stroke="#000000" points="478.8249,-97.8612 475.3248,-87.8613 471.8249,-97.8613 478.8249,-97.8612"/>
</g>
<!-- 5341030216 -->
<g id="node4" class="node">
<title>5341030216</title>
<polygon fill="#d3d3d3" stroke="#000000" points="556.4748,-211.8036 394.1748,-211.8036 394.1748,-188.9964 556.4748,-188.9964 556.4748,-211.8036"/>
<text text-anchor="middle" x="475.3248" y="-196.8" font-family="Times,serif" font-size="12.00" fill="#000000">MkldnnConvolutionBackward</text>
</g>
<!-- 5341030216&#45;&gt;5341029992 -->
<g id="edge3" class="edge">
<title>5341030216&#45;&gt;5341029992</title>
<path fill="none" stroke="#000000" d="M475.3248,-189.1399C475.3248,-181.8687 475.3248,-172.1743 475.3248,-163.4681"/>
<polygon fill="#000000" stroke="#000000" points="478.8249,-163.2255 475.3248,-153.2255 471.8249,-163.2256 478.8249,-163.2255"/>
</g>
<!-- 5341030776 -->
<g id="node5" class="node">
<title>5341030776</title>
<polygon fill="#d3d3d3" stroke="#000000" points="411.12,-277.2036 291.5296,-277.2036 291.5296,-254.3964 411.12,-254.3964 411.12,-277.2036"/>
<text text-anchor="middle" x="351.3248" y="-262.2" font-family="Times,serif" font-size="12.00" fill="#000000">ThresholdBackward0</text>
</g>
<!-- 5341030776&#45;&gt;5341030216 -->
<g id="edge4" class="edge">
<title>5341030776&#45;&gt;5341030216</title>
<path fill="none" stroke="#000000" d="M372.6412,-254.5573C392.5145,-244.0758 422.3725,-228.3281 444.7769,-216.5116"/>
<polygon fill="#000000" stroke="#000000" points="446.6593,-219.4758 453.8716,-211.7148 443.3937,-213.2842 446.6593,-219.4758"/>
</g>
<!-- 5341030552 -->
<g id="node6" class="node">
<title>5341030552</title>
<polygon fill="#d3d3d3" stroke="#000000" points="432.4748,-342.6036 270.1748,-342.6036 270.1748,-319.7964 432.4748,-319.7964 432.4748,-342.6036"/>
<text text-anchor="middle" x="351.3248" y="-327.6" font-family="Times,serif" font-size="12.00" fill="#000000">MkldnnConvolutionBackward</text>
</g>
<!-- 5341030552&#45;&gt;5341030776 -->
<g id="edge5" class="edge">
<title>5341030552&#45;&gt;5341030776</title>
<path fill="none" stroke="#000000" d="M351.3248,-319.8082C351.3248,-310.8054 351.3248,-297.9859 351.3248,-287.0957"/>
<polygon fill="#000000" stroke="#000000" points="354.8249,-287.0612 351.3248,-277.0613 347.8249,-287.0613 354.8249,-287.0612"/>
</g>
<!-- 5341030888 -->
<g id="node7" class="node">
<title>5341030888</title>
<polygon fill="#d3d3d3" stroke="#000000" points="290.274,-408.0036 108.3756,-408.0036 108.3756,-385.1964 290.274,-385.1964 290.274,-408.0036"/>
<text text-anchor="middle" x="199.3248" y="-393" font-family="Times,serif" font-size="12.00" fill="#000000">MaxPool2DWithIndicesBackward</text>
</g>
<!-- 5341030888&#45;&gt;5341030552 -->
<g id="edge6" class="edge">
<title>5341030888&#45;&gt;5341030552</title>
<path fill="none" stroke="#000000" d="M225.4545,-385.3573C250.4351,-374.6091 288.2855,-358.3235 315.9568,-346.4176"/>
<polygon fill="#000000" stroke="#000000" points="317.4797,-349.5726 325.2821,-342.4052 314.713,-343.1425 317.4797,-349.5726"/>
</g>
<!-- 5341031000 -->
<g id="node8" class="node">
<title>5341031000</title>
<polygon fill="#d3d3d3" stroke="#000000" points="259.12,-473.4036 139.5296,-473.4036 139.5296,-450.5964 259.12,-450.5964 259.12,-473.4036"/>
<text text-anchor="middle" x="199.3248" y="-458.4" font-family="Times,serif" font-size="12.00" fill="#000000">ThresholdBackward0</text>
</g>
<!-- 5341031000&#45;&gt;5341030888 -->
<g id="edge7" class="edge">
<title>5341031000&#45;&gt;5341030888</title>
<path fill="none" stroke="#000000" d="M199.3248,-450.6082C199.3248,-441.6054 199.3248,-428.7859 199.3248,-417.8957"/>
<polygon fill="#000000" stroke="#000000" points="202.8249,-417.8612 199.3248,-407.8613 195.8249,-417.8613 202.8249,-417.8612"/>
</g>
<!-- 5341031112 -->
<g id="node9" class="node">
<title>5341031112</title>
<polygon fill="#d3d3d3" stroke="#000000" points="280.4748,-531.8036 118.1748,-531.8036 118.1748,-508.9964 280.4748,-508.9964 280.4748,-531.8036"/>
<text text-anchor="middle" x="199.3248" y="-516.8" font-family="Times,serif" font-size="12.00" fill="#000000">MkldnnConvolutionBackward</text>
</g>
<!-- 5341031112&#45;&gt;5341031000 -->
<g id="edge8" class="edge">
<title>5341031112&#45;&gt;5341031000</title>
<path fill="none" stroke="#000000" d="M199.3248,-509.1399C199.3248,-501.8687 199.3248,-492.1743 199.3248,-483.4681"/>
<polygon fill="#000000" stroke="#000000" points="202.8249,-483.2255 199.3248,-473.2255 195.8249,-483.2256 202.8249,-483.2255"/>
</g>
<!-- 5341031224 -->
<g id="node10" class="node">
<title>5341031224</title>
<polygon fill="#d3d3d3" stroke="#000000" points="141.12,-597.2036 21.5296,-597.2036 21.5296,-574.3964 141.12,-574.3964 141.12,-597.2036"/>
<text text-anchor="middle" x="81.3248" y="-582.2" font-family="Times,serif" font-size="12.00" fill="#000000">ThresholdBackward0</text>
</g>
<!-- 5341031224&#45;&gt;5341031112 -->
<g id="edge9" class="edge">
<title>5341031224&#45;&gt;5341031112</title>
<path fill="none" stroke="#000000" d="M101.6097,-574.5573C120.437,-564.1226 148.6812,-548.4686 169.9691,-536.67"/>
<polygon fill="#000000" stroke="#000000" points="171.8599,-539.6238 178.9097,-531.7148 168.4665,-533.5012 171.8599,-539.6238"/>
</g>
<!-- 5341031336 -->
<g id="node11" class="node">
<title>5341031336</title>
<polygon fill="#d3d3d3" stroke="#000000" points="162.4748,-662.6036 .1748,-662.6036 .1748,-639.7964 162.4748,-639.7964 162.4748,-662.6036"/>
<text text-anchor="middle" x="81.3248" y="-647.6" font-family="Times,serif" font-size="12.00" fill="#000000">MkldnnConvolutionBackward</text>
</g>
<!-- 5341031336&#45;&gt;5341031224 -->
<g id="edge10" class="edge">
<title>5341031336&#45;&gt;5341031224</title>
<path fill="none" stroke="#000000" d="M81.3248,-639.8082C81.3248,-630.8054 81.3248,-617.9859 81.3248,-607.0957"/>
<polygon fill="#000000" stroke="#000000" points="84.8249,-607.0612 81.3248,-597.0613 77.8249,-607.0613 84.8249,-607.0612"/>
</g>
<!-- 5341030608 -->
<g id="node12" class="node">
<title>5341030608</title>
<polygon fill="#add8e6" stroke="#000000" points="77.8144,-735.0022 2.8352,-735.0022 2.8352,-698.1978 77.8144,-698.1978 77.8144,-735.0022"/>
<text text-anchor="middle" x="40.3248" y="-706" font-family="Times,serif" font-size="12.00" fill="#000000"> (64, 3, 3, 3)</text>
</g>
<!-- 5341030608&#45;&gt;5341031336 -->
<g id="edge11" class="edge">
<title>5341030608&#45;&gt;5341031336</title>
<path fill="none" stroke="#000000" d="M51.7456,-698.3825C57.0354,-689.9446 63.3359,-679.8945 68.76,-671.2424"/>
<polygon fill="#000000" stroke="#000000" points="71.8662,-672.8769 74.2124,-662.5451 65.9353,-669.1588 71.8662,-672.8769"/>
</g>
<!-- 5341030664 -->
<g id="node13" class="node">
<title>5341030664</title>
<polygon fill="#add8e6" stroke="#000000" points="149.3248,-735.0022 95.3248,-735.0022 95.3248,-698.1978 149.3248,-698.1978 149.3248,-735.0022"/>
<text text-anchor="middle" x="122.3248" y="-706" font-family="Times,serif" font-size="12.00" fill="#000000"> (64)</text>
</g>
<!-- 5341030664&#45;&gt;5341031336 -->
<g id="edge12" class="edge">
<title>5341030664&#45;&gt;5341031336</title>
<path fill="none" stroke="#000000" d="M110.904,-698.3825C105.6142,-689.9446 99.3137,-679.8945 93.8896,-671.2424"/>
<polygon fill="#000000" stroke="#000000" points="96.7143,-669.1588 88.4372,-662.5451 90.7834,-672.8769 96.7143,-669.1588"/>
</g>
<!-- 5341030328 -->
<g id="node14" class="node">
<title>5341030328</title>
<polygon fill="#add8e6" stroke="#000000" points="239.8144,-604.2022 158.8352,-604.2022 158.8352,-567.3978 239.8144,-567.3978 239.8144,-604.2022"/>
<text text-anchor="middle" x="199.3248" y="-575.2" font-family="Times,serif" font-size="12.00" fill="#000000"> (64, 64, 3, 3)</text>
</g>
<!-- 5341030328&#45;&gt;5341031112 -->
<g id="edge13" class="edge">
<title>5341030328&#45;&gt;5341031112</title>
<path fill="none" stroke="#000000" d="M199.3248,-567.5825C199.3248,-559.5934 199.3248,-550.1591 199.3248,-541.8345"/>
<polygon fill="#000000" stroke="#000000" points="202.8249,-541.7451 199.3248,-531.7451 195.8249,-541.7452 202.8249,-541.7451"/>
</g>
<!-- 5341030384 -->
<g id="node15" class="node">
<title>5341030384</title>
<polygon fill="#add8e6" stroke="#000000" points="311.3248,-604.2022 257.3248,-604.2022 257.3248,-567.3978 311.3248,-567.3978 311.3248,-604.2022"/>
<text text-anchor="middle" x="284.3248" y="-575.2" font-family="Times,serif" font-size="12.00" fill="#000000"> (64)</text>
</g>
<!-- 5341030384&#45;&gt;5341031112 -->
<g id="edge14" class="edge">
<title>5341030384&#45;&gt;5341031112</title>
<path fill="none" stroke="#000000" d="M260.6476,-567.5825C248.6309,-558.3367 234.0984,-547.1552 222.1972,-537.9983"/>
<polygon fill="#000000" stroke="#000000" points="224.1299,-535.0692 214.07,-531.7451 219.8612,-540.6171 224.1299,-535.0692"/>
</g>
<!-- 5341029880 -->
<g id="node16" class="node">
<title>5341029880</title>
<polygon fill="#add8e6" stroke="#000000" points="394.8144,-415.0022 307.8352,-415.0022 307.8352,-378.1978 394.8144,-378.1978 394.8144,-415.0022"/>
<text text-anchor="middle" x="351.3248" y="-386" font-family="Times,serif" font-size="12.00" fill="#000000"> (128, 64, 3, 3)</text>
</g>
<!-- 5341029880&#45;&gt;5341030552 -->
<g id="edge15" class="edge">
<title>5341029880&#45;&gt;5341030552</title>
<path fill="none" stroke="#000000" d="M351.3248,-378.3825C351.3248,-370.3934 351.3248,-360.9591 351.3248,-352.6345"/>
<polygon fill="#000000" stroke="#000000" points="354.8249,-352.5451 351.3248,-342.5451 347.8249,-352.5452 354.8249,-352.5451"/>
</g>
<!-- 5341029936 -->
<g id="node17" class="node">
<title>5341029936</title>
<polygon fill="#add8e6" stroke="#000000" points="466.3248,-415.0022 412.3248,-415.0022 412.3248,-378.1978 466.3248,-378.1978 466.3248,-415.0022"/>
<text text-anchor="middle" x="439.3248" y="-386" font-family="Times,serif" font-size="12.00" fill="#000000"> (128)</text>
</g>
<!-- 5341029936&#45;&gt;5341030552 -->
<g id="edge16" class="edge">
<title>5341029936&#45;&gt;5341030552</title>
<path fill="none" stroke="#000000" d="M414.8119,-378.3825C402.2504,-369.0469 387.0333,-357.7379 374.6464,-348.5322"/>
<polygon fill="#000000" stroke="#000000" points="376.7044,-345.7009 366.5904,-342.5451 372.5289,-351.3193 376.7044,-345.7009"/>
</g>
<!-- 5341029544 -->
<g id="node18" class="node">
<title>5341029544</title>
<polygon fill="#add8e6" stroke="#000000" points="521.8144,-284.2022 428.8352,-284.2022 428.8352,-247.3978 521.8144,-247.3978 521.8144,-284.2022"/>
<text text-anchor="middle" x="475.3248" y="-255.2" font-family="Times,serif" font-size="12.00" fill="#000000"> (128, 128, 3, 3)</text>
</g>
<!-- 5341029544&#45;&gt;5341030216 -->
<g id="edge17" class="edge">
<title>5341029544&#45;&gt;5341030216</title>
<path fill="none" stroke="#000000" d="M475.3248,-247.5825C475.3248,-239.5934 475.3248,-230.1591 475.3248,-221.8345"/>
<polygon fill="#000000" stroke="#000000" points="478.8249,-221.7451 475.3248,-211.7451 471.8249,-221.7452 478.8249,-221.7451"/>
</g>
<!-- 5341029600 -->
<g id="node19" class="node">
<title>5341029600</title>
<polygon fill="#add8e6" stroke="#000000" points="593.3248,-284.2022 539.3248,-284.2022 539.3248,-247.3978 593.3248,-247.3978 593.3248,-284.2022"/>
<text text-anchor="middle" x="566.3248" y="-255.2" font-family="Times,serif" font-size="12.00" fill="#000000"> (128)</text>
</g>
<!-- 5341029600&#45;&gt;5341030216 -->
<g id="edge18" class="edge">
<title>5341029600&#45;&gt;5341030216</title>
<path fill="none" stroke="#000000" d="M540.9762,-247.5825C527.9865,-238.2469 512.2507,-226.9379 499.4415,-217.7322"/>
<polygon fill="#000000" stroke="#000000" points="501.2739,-214.739 491.1108,-211.7451 497.1887,-220.4233 501.2739,-214.739"/>
</g>
<!-- 5341029096 -->
<g id="node20" class="node">
<title>5341029096</title>
<polygon fill="#add8e6" stroke="#000000" points="676.8144,-95.0022 583.8352,-95.0022 583.8352,-58.1978 676.8144,-58.1978 676.8144,-95.0022"/>
<text text-anchor="middle" x="630.3248" y="-66" font-family="Times,serif" font-size="12.00" fill="#000000"> (256, 128, 3, 3)</text>
</g>
<!-- 5341029096&#45;&gt;5348134528 -->
<g id="edge19" class="edge">
<title>5341029096&#45;&gt;5348134528</title>
<path fill="none" stroke="#000000" d="M630.3248,-58.3825C630.3248,-50.3934 630.3248,-40.9591 630.3248,-32.6345"/>
<polygon fill="#000000" stroke="#000000" points="633.8249,-32.5451 630.3248,-22.5451 626.8249,-32.5452 633.8249,-32.5451"/>
</g>
<!-- 5341029152 -->
<g id="node21" class="node">
<title>5341029152</title>
<polygon fill="#add8e6" stroke="#000000" points="748.3248,-95.0022 694.3248,-95.0022 694.3248,-58.1978 748.3248,-58.1978 748.3248,-95.0022"/>
<text text-anchor="middle" x="721.3248" y="-66" font-family="Times,serif" font-size="12.00" fill="#000000"> (256)</text>
</g>
<!-- 5341029152&#45;&gt;5348134528 -->
<g id="edge20" class="edge">
<title>5341029152&#45;&gt;5348134528</title>
<path fill="none" stroke="#000000" d="M695.9762,-58.3825C682.9865,-49.0469 667.2507,-37.7379 654.4415,-28.5322"/>
<polygon fill="#000000" stroke="#000000" points="656.2739,-25.539 646.1108,-22.5451 652.1887,-31.2233 656.2739,-25.539"/>
</g>
</g>
</svg>
