<?xml version="1.0" encoding="UTF-8" standalone="no"?>
<!DOCTYPE svg PUBLIC "-//W3C//DTD SVG 1.1//EN"
 "http://www.w3.org/Graphics/SVG/1.1/DTD/svg11.dtd">
<!-- Generated by graphviz version 2.40.1 (20161225.0304)
 -->
<!-- Title: %3 Pages: 1 -->
<svg width="206pt" height="188pt"
 viewBox="0.00 0.00 206.00 188.00" xmlns="http://www.w3.org/2000/svg" xmlns:xlink="http://www.w3.org/1999/xlink">
<g id="graph0" class="graph" transform="scale(1 1) rotate(0) translate(4 184)">
<title>%3</title>
<polygon fill="#ffffff" stroke="transparent" points="-4,4 -4,-184 202,-184 202,4 -4,4"/>
<!-- __main__.TreeNode object at 0x10d017128 -->
<g id="node1" class="node">
<title>__main__.TreeNode object at 0x10d017128</title>
<ellipse fill="none" stroke="#000000" cx="135" cy="-162" rx="27" ry="18"/>
<text text-anchor="middle" x="135" y="-157.8" font-family="Times,serif" font-size="14.00" fill="#000000">3</text>
</g>
<!-- __main__.TreeNode object at 0x10d017fd0 -->
<g id="node2" class="node">
<title>__main__.TreeNode object at 0x10d017fd0</title>
<ellipse fill="none" stroke="#000000" cx="99" cy="-90" rx="27" ry="18"/>
<text text-anchor="middle" x="99" y="-85.8" font-family="Times,serif" font-size="14.00" fill="#000000">4</text>
</g>
<!-- __main__.TreeNode object at 0x10d017128&#45;&gt;__main__.TreeNode object at 0x10d017fd0 -->
<g id="edge1" class="edge">
<title>__main__.TreeNode object at 0x10d017128&#45;&gt;__main__.TreeNode object at 0x10d017fd0</title>
<path fill="none" stroke="#000000" d="M126.2854,-144.5708C122.0403,-136.0807 116.8464,-125.6929 112.1337,-116.2674"/>
<polygon fill="#000000" stroke="#000000" points="115.237,-114.6477 107.6343,-107.2687 108.976,-117.7782 115.237,-114.6477"/>
</g>
<!-- __main__.TreeNode object at 0x10d017908 -->
<g id="node5" class="node">
<title>__main__.TreeNode object at 0x10d017908</title>
<ellipse fill="none" stroke="#000000" cx="171" cy="-90" rx="27" ry="18"/>
<text text-anchor="middle" x="171" y="-85.8" font-family="Times,serif" font-size="14.00" fill="#000000">5</text>
</g>
<!-- __main__.TreeNode object at 0x10d017128&#45;&gt;__main__.TreeNode object at 0x10d017908 -->
<g id="edge4" class="edge">
<title>__main__.TreeNode object at 0x10d017128&#45;&gt;__main__.TreeNode object at 0x10d017908</title>
<path fill="none" stroke="#000000" d="M143.7146,-144.5708C147.9597,-136.0807 153.1536,-125.6929 157.8663,-116.2674"/>
<polygon fill="#000000" stroke="#000000" points="161.024,-117.7782 162.3657,-107.2687 154.763,-114.6477 161.024,-117.7782"/>
</g>
<!-- __main__.TreeNode object at 0x10d0176d8 -->
<g id="node3" class="node">
<title>__main__.TreeNode object at 0x10d0176d8</title>
<ellipse fill="none" stroke="#000000" cx="27" cy="-18" rx="27" ry="18"/>
<text text-anchor="middle" x="27" y="-13.8" font-family="Times,serif" font-size="14.00" fill="#000000">5</text>
</g>
<!-- __main__.TreeNode object at 0x10d017fd0&#45;&gt;__main__.TreeNode object at 0x10d0176d8 -->
<g id="edge2" class="edge">
<title>__main__.TreeNode object at 0x10d017fd0&#45;&gt;__main__.TreeNode object at 0x10d0176d8</title>
<path fill="none" stroke="#000000" d="M83.7307,-74.7307C73.803,-64.803 60.6847,-51.6847 49.5637,-40.5637"/>
<polygon fill="#000000" stroke="#000000" points="51.7933,-37.8436 42.2473,-33.2473 46.8436,-42.7933 51.7933,-37.8436"/>
</g>
<!-- __main__.TreeNode object at 0x10cee2668 -->
<g id="node4" class="node">
<title>__main__.TreeNode object at 0x10cee2668</title>
<ellipse fill="none" stroke="#000000" cx="99" cy="-18" rx="27" ry="18"/>
<text text-anchor="middle" x="99" y="-13.8" font-family="Times,serif" font-size="14.00" fill="#000000">4</text>
</g>
<!-- __main__.TreeNode object at 0x10d017fd0&#45;&gt;__main__.TreeNode object at 0x10cee2668 -->
<g id="edge3" class="edge">
<title>__main__.TreeNode object at 0x10d017fd0&#45;&gt;__main__.TreeNode object at 0x10cee2668</title>
<path fill="none" stroke="#000000" d="M99,-71.8314C99,-64.131 99,-54.9743 99,-46.4166"/>
<polygon fill="#000000" stroke="#000000" points="102.5001,-46.4132 99,-36.4133 95.5001,-46.4133 102.5001,-46.4132"/>
</g>
<!-- __main__.TreeNode object at 0x10cee2320 -->
<g id="node6" class="node">
<title>__main__.TreeNode object at 0x10cee2320</title>
<ellipse fill="none" stroke="#000000" cx="171" cy="-18" rx="27" ry="18"/>
<text text-anchor="middle" x="171" y="-13.8" font-family="Times,serif" font-size="14.00" fill="#000000">7</text>
</g>
<!-- __main__.TreeNode object at 0x10d017908&#45;&gt;__main__.TreeNode object at 0x10cee2320 -->
<g id="edge5" class="edge">
<title>__main__.TreeNode object at 0x10d017908&#45;&gt;__main__.TreeNode object at 0x10cee2320</title>
<path fill="none" stroke="#000000" d="M171,-71.8314C171,-64.131 171,-54.9743 171,-46.4166"/>
<polygon fill="#000000" stroke="#000000" points="174.5001,-46.4132 171,-36.4133 167.5001,-46.4133 174.5001,-46.4132"/>
</g>
</g>
</svg>
